<svg xmlns="http://www.w3.org/2000/svg" width="20" height="20" viewBox="0 0 1024 1024" data-v-72bebe88=""><path d="M887.467 737.28c0 3.413-20.48 68.267-68.267 136.533-40.96 58.027-81.92 116.054-146.773 119.467-64.854 0-85.334-37.547-160.427-37.547s-95.573 37.547-157.013 40.96c-64.854 3.414-112.64-64.853-153.6-122.88-81.92-119.466-146.774-337.92-61.44-481.28 44.373-75.093 119.466-122.88 201.386-122.88 61.44 0 119.467 40.96 157.014 40.96 37.546 0 109.226-51.2 184.32-44.373 30.72 0 119.466 13.653 177.493 95.573-3.413 3.414-105.813 61.44-105.813 184.32 3.413 143.36 133.12 191.147 133.12 191.147M638.293 187.733c34.134-40.96 54.614-98.986 51.2-153.6-51.2 3.414-109.226 30.72-143.36 71.68-30.72 34.134-58.026 92.16-51.2 150.187 51.2 3.413 109.227-27.307 143.36-68.267" data-v-72bebe88=""></path></svg>