<svg xmlns="http://www.w3.org/2000/svg" width="20" height="20" viewBox="0 0 1024 1024" data-v-72bebe88=""><path d="M895.078 834.074c-4.94-15.028-48.076-33.895-61.644-64.052-13.568-30.156-2.484-46.412-23.399-61.542a24.269 24.269 0 0 0-9.267-4.045c7.322-19.763 7.552-46.745 6.58-82.278-2.484-92.928-42.369-148.634-63.822-175.847-25.65-32.588-34.508-44.85-54.22-76.441-19.072-30.515-39.348-68.02-39.988-108.39-.87-47.719-2.483-102.554-24.704-143.924-22.195-41.344-77.388-82.176-155.443-60.211-83.43 23.475-85.478 94.874-89.139 147.635-3.66 52.762 19.942 90.291.102 156.98-19.84 66.687-54.323 91.494-70.912 124.927-41.088 82.842-49.817 90.19-67.84 132.864-19.916 47.053-4.94 74.906-4.94 74.906l.87 2.304c-7.117 13.389-10.88 26.778-19.302 30.387-16.82 7.245-56.704-3.737-70.272 10.087-13.594 13.824 6.553 97.536-2.484 112.998-9.062 15.462-17.254 15.027-17.254 40.14 0 25.114 27.162 22.606 133.248 59.009 106.06 36.429 125.798 26.342 150.477-5.043 4.096-5.146 6.681-10.855 8.192-16.896 32.435-2.944 65.229-5.581 84.3-5.684 42.369-.256 101.633 13.364 129.255 20.276 3.968 10.854 9.805 19.635 17.562 23.705 22.195 11.29 74.06 10.087 104.883-20.07 30.848-30.183 108.544-69.018 118.477-79.104 9.907-10.087 25.548-17.664 20.684-32.691zM451.072 254.899c-1.178-14.259-8.832-25.113-17.152-24.473-8.294.665-14.106 12.85-12.928 26.982.64 7.91 3.328 14.822 7.014 19.2l-3.66 3.405c-6.042-8.013-11.11-20.839-12.416-36.531-2.253-27.085 8.09-48.384 18.867-49.255h.768v-8.115 8.115c10.445 0 23.705 18.663 25.856 45.415a99.21 99.21 0 0 1-.103 16.128c-2.048.87-4.096 1.868-6.041 2.867-.103-1.101-.103-2.432-.205-3.738zm-14.797 19.763l-.691.717.691-.717zm-2.585 2.432l-.692.692c0-.692 0-.692.692-.692zm-13.568 12.032c2.457-2.355 4.48-4.684 6.912-7.014-2.432 2.816-4.455 5.12-6.912 7.014zm2.176-1.97c2.304-2.202 4.608-4.84 6.912-7.04-2.304 2.636-4.608 4.838-6.912 7.04zm17.664 20.607c2.688-2.304 5.299-4.71 7.756-7.014 11.52-10.752 19.303-17.331 29.645-17.767 1.203-.102 2.381-.102 3.584-.102 17.562 0 35.328 6.349 59.495 21.504l6.144 3.712a479.127 479.127 0 0 1-19.303 16.794c-17.152 14.13-29.85 22.912-36.429 26.624-4.864-2.176-13.696-7.117-26.854-16.333-14.336-10.087-25.344-19.507-28.134-22.375a22.605 22.605 0 0 1 4.096-5.043zm103.5-37.632c2.15 2.1 4.736 4.199 6.912 6.298a100.173 100.173 0 0 0-6.912-6.323zm1.818-41.984c-10.342-.563-20.147 10.752-21.888 25.216a29.352 29.352 0 0 0-.102 6.682 139.264 139.264 0 0 0-11.853-4.173 69.248 69.248 0 0 1 .205-14.9c1.536-13.158 6.579-25.446 14.028-34.329 6.656-7.91 14.439-12.288 21.888-12.288h1.076c5.606.307 10.675 3.072 14.848 8.218 7.68 9.216 11.136 24.243 9.292 40.14-1.51 13.159-6.579 25.447-14.003 34.33-.333.333-.665.768-.973 1.101l-.972-.64a99.558 99.558 0 0 0-4.532-2.765c4.532-4.608 7.757-11.52 8.73-19.405 1.51-14.49-5.376-26.65-15.744-27.212zm9.267 51.098c-2.304-2.1-4.608-4.915-6.912-7.015 2.714 2.1 4.992 4.199 6.912 7.015zm-14.336-9.293c-2.125-1.408-4.761-2.816-6.912-4.224 2.15 1.408 4.275 2.816 6.912 4.224zm-3.993-2.278c-2.51-1.408-4.378-2.1-6.887-3.508 2.509 1.408 5.018 2.816 6.912 3.508zm-29.39-10.65c.692 0 1.383.691 2.766.691-1.383-.691-2.074-.691-2.765-.691zm57.754 28.16c-2.304-2.202-4.608-4.838-6.912-7.04 2.304 2.637 4.608 4.838 6.912 7.04zm8.397 4.608a106.42 106.42 0 0 0-6.912-6.298c2.458 2.1 4.48 4.224 6.912 6.324zm-2.688-1.1c-2.099-2.177-4.505-4.865-6.912-7.04 2.407 2.175 4.813 4.863 6.912 7.04zm-2.816-1.767zm31.053 552.96c-19.405 17.997-34.278 25.446-45.158 32.486-20.378 13.159-53.248 21.171-87.424 15.898-21.658-3.303-41.063-12.493-58.112-22.938a126.566 126.566 0 0 0-11.213-18.637c-7.527-10.188-58.855-84.019-90.983-130.099a143.36 143.36 0 0 1-2.457-27.417c.64-53.965 15.411-117.044 27.469-131.84 3.686-4.506 30.617-82.612 36.992-99.175 11.75-30.157 29.85-65.613 39.347-86.323 6.451-17.126 7.424-29.082 6.579-37.197 10.65 11.29 60.672 49.69 78.592 49.69h.307c14.874-.333 71.91-47.616 91.392-69.325 1.843 7.91 11.443 23.578 17.587 38.733 17.92 44.083 38.708 126.566 72.013 172.313 2.253 3.175 7.86 13.927 8.96 18.1 12.928 47.283 10.343 83.046 2.355 153.241a52.685 52.685 0 0 0-13.056-2.637c-22.732-1.843-30.822 7.578-30.822 7.578s-1.28 51.994-3.763 100.147c-1.946 2.202-3.994 4.403-6.042 6.58-11.648 11.852-22.425 22.067-32.563 30.822z" data-v-72bebe88=""></path></svg>